<svg version="1" xmlns="http://www.w3.org/2000/svg" width="93.333" height="93.333" viewBox="0 0 70.000000 70.000000"><path d="M25.1 3.1C17.4 5.4 9 12.9 4.9 20.8c-2 4-2.4 6.2-2.4 14.2 0 8.1.4 10.2 2.4 14.2 3.1 6.1 9.3 12.3 15.6 15.6 4.4 2.4 6.2 2.7 14.5 2.7s10.1-.3 14.5-2.7c6.3-3.3 12.5-9.5 15.6-15.6 2-4 2.4-6.1 2.4-14.2 0-8.3-.3-10.1-2.7-14.5-3.4-6.4-9-12-15.3-15.3-3.9-2-6.8-2.6-13-2.8-4.4-.2-9.5.1-11.4.7zM50 10.9c0 2.3-6.4 8.1-8.9 8.1-2.2 0-3.5-2.6-2.3-4.7 2.5-4.4 11.2-7 11.2-3.4zm-13.2 16c-.2 3.6-.7 6.6-1.3 6.6-1.3 0-1.9-12.5-.9-18.5l.7-4.5.9 4.9c.5 2.6.8 7.8.6 11.5zm-12-13.5c1.5.8 4 2.8 5.6 4.5 2.8 3 2.9 3.1 1.1 5-1.6 1.9-2 1.9-5.4.5-4-1.6-10.1-7.6-10.1-9.9 0-1.9 5.1-2 8.8-.1zM29 30.5c1.6.8 3.6 2.5 4.4 3.7l1.5 2.1 3.3-3.2c5.1-5 10.6-5.4 14.8-.9 3.1 3.3 3.5 7.9 1.2 12.4-2.1 4-8.9 11.1-15.3 15.8L35.3 63l-2.9-2.2c-5.3-3.9-13.5-12.3-15.1-15.2-3.2-6.1-1.2-13.4 4.2-15.7 2.9-1.2 4.3-1.1 7.5.6z"/></svg>